<svg width="28" height="41" viewBox="0 0 28 41" fill="none" xmlns="http://www.w3.org/2000/svg">
<mask id="path-1-inside-1_178_343" fill="white">
<path d="M14.0929 0.468315C13.929 0.472534 13.7705 0.530391 13.6421 0.632845C12.5545 1.50248 11.6092 2.53642 10.84 3.69719C10.8125 3.64657 10.7845 3.59624 10.7565 3.54622C10.6417 3.34342 10.4392 3.2051 10.2084 3.17226C9.97754 3.13941 9.7446 3.21505 9.57736 3.37777C8.11496 4.8016 6.86378 6.42731 5.86123 8.20553C5.75546 8.05848 5.58521 7.97229 5.4041 7.9735C5.22329 7.975 5.05424 8.0639 4.95088 8.21216C2.73904 11.3675 1.59216 15.146 1.67686 18.9983C1.64462 18.9829 1.61207 18.9678 1.57983 18.9531C1.39692 18.8681 1.18237 18.8886 1.01904 19.0067C0.855414 19.1245 0.768028 19.3213 0.790631 19.5217C1.05943 21.9544 1.98935 24.2672 3.47921 26.2091C4.9693 28.1509 6.96237 29.6473 9.24263 30.5366C9.92215 30.8018 10.5058 31.2656 10.9175 31.8676C11.3288 32.4697 11.5491 33.1821 11.5491 33.9113V38.8274C11.5488 39.1562 11.679 39.4714 11.9113 39.704C12.1433 39.9366 12.4585 40.0671 12.7873 40.0674H15.4387H15.4384C15.7672 40.0671 16.0824 39.9366 16.3147 39.704C16.5467 39.4713 16.6772 39.1561 16.6766 38.8274V33.9113C16.6766 33.1821 16.8966 32.47 17.3076 31.868C17.7189 31.2659 18.3021 30.8018 18.9812 30.5366C21.2615 29.6474 23.2548 28.1509 24.7446 26.2091C26.2347 24.2672 27.1644 21.9545 27.4332 19.5217C27.4558 19.3213 27.3687 19.1245 27.2051 19.0067C27.0415 18.8886 26.8272 18.8681 26.6443 18.9531C26.613 18.9678 26.5816 18.9829 26.5506 18.9983C26.6344 15.1457 25.486 11.3668 23.2733 8.21216C23.1696 8.06541 23.0015 7.97742 22.8216 7.97591C22.6417 7.97471 22.4723 8.05998 22.3662 8.20553C21.3637 6.42732 20.1125 4.80161 18.6501 3.37778C18.4829 3.21506 18.2499 3.13942 18.0191 3.17226C17.7883 3.20511 17.5858 3.34343 17.471 3.54623C17.4423 3.59625 17.4137 3.64658 17.3857 3.6972C16.6158 2.53643 15.6699 1.50256 14.5817 0.632853C14.4431 0.522261 14.2698 0.463802 14.0926 0.468322L14.0929 0.468315ZM14.0929 1.00078C14.1004 1.00048 14.108 1.00048 14.1152 1.00078C14.164 1.00168 14.211 1.01886 14.2487 1.04929C15.3703 1.94608 16.3336 3.024 17.0997 4.23838C16.4503 5.53446 15.9844 6.91485 15.7159 8.33929C15.3868 7.89693 15.0397 7.46843 14.6754 7.0544C14.5325 6.89258 14.3267 6.79947 14.111 6.79947C13.8949 6.79947 13.6891 6.89258 13.5463 7.0544C13.1822 7.46844 12.8351 7.89696 12.5061 8.33929C12.2373 6.91485 11.7717 5.53446 11.1223 4.23838C11.888 3.024 12.8517 1.94608 13.9729 1.04929C14.007 1.02157 14.0489 1.0047 14.0926 1.00078H14.0929ZM10.0821 3.69569V3.69539C10.0896 3.69508 10.0969 3.69508 10.1044 3.69539C10.1818 3.6978 10.2521 3.74059 10.29 3.80808C11.1889 5.40008 11.7913 7.14243 12.0673 8.9495C11.1422 10.2968 10.3847 11.7513 9.8112 13.2812C9.5198 12.9838 9.21032 12.7042 8.88517 12.4438C8.63868 12.2453 8.29394 12.2227 8.02333 12.3866C7.66625 12.6042 7.32362 12.8452 6.99849 13.108C6.83576 11.6688 6.53563 10.2486 6.10201 8.86637C7.11359 6.9773 8.40966 5.25485 9.94465 3.75959C9.98142 3.72253 10.0299 3.69993 10.0818 3.69541L10.0821 3.69569ZM18.1111 3.69569V3.69539C18.1184 3.69508 18.1259 3.69508 18.1334 3.69539C18.1877 3.6984 18.2389 3.7213 18.2772 3.75987C19.8125 5.25513 21.1085 6.97727 22.1198 8.86665C21.6865 10.2486 21.386 11.6691 21.2233 13.1083C20.8976 12.8452 20.5547 12.6041 20.1969 12.3869C19.9266 12.2235 19.5828 12.2461 19.3366 12.4438C19.0109 12.7042 18.7011 12.9838 18.4089 13.2815C17.8348 11.7513 17.0766 10.2968 16.1512 8.94979C16.4284 7.14202 17.0317 5.39998 17.9321 3.80837C17.9686 3.74268 18.0358 3.70019 18.1108 3.69567L18.1111 3.69569ZM14.1018 7.33043V7.33012C14.1687 7.32741 14.2332 7.35544 14.2769 7.40636C15.9053 9.25841 17.1697 11.4009 18.0036 13.7218C16.5906 15.3424 15.7167 17.3623 15.503 19.5015C15.1972 19.2366 14.8802 18.985 14.553 18.7473C14.2896 18.5565 13.9334 18.5565 13.6704 18.7473C13.3422 18.985 13.0246 19.2366 12.7181 19.5015C12.5045 17.3623 11.6306 15.3424 10.2176 13.7218C11.052 11.4009 12.317 9.25841 13.9458 7.40636C13.9855 7.36026 14.0428 7.33254 14.1037 7.33012L14.1018 7.33043ZM5.40393 8.50778V8.50748V8.50929V8.5111V8.5129V8.51471V8.51652V8.51833V8.52014V8.52345V8.52526C5.95598 10.1473 6.31792 11.8279 6.48238 13.5332C4.67014 15.2165 3.59223 17.5443 3.48076 20.0153C3.06249 19.745 2.63126 19.4952 2.18892 19.2662C2.04458 15.4334 3.1583 11.6586 5.3605 8.51863V8.51682V8.51502V8.51321V8.5114V8.50959V8.50778L5.40393 8.50778ZM22.8158 8.50778V8.50748V8.50929V8.5111V8.5129V8.51471V8.51652V8.51833C25.018 11.6586 26.1321 15.4335 25.9874 19.2659C25.5456 19.4955 25.1153 19.7459 24.6974 20.0165C24.5856 17.5455 23.5067 15.2174 21.6939 13.5347C21.8584 11.8286 22.2203 10.1474 22.7723 8.525V8.52319V8.52138V8.51958V8.51777V8.51596V8.51415V8.51234V8.51084V8.50903V8.50722L22.8158 8.50778ZM8.40941 12.81C8.46155 12.8085 8.51247 12.8257 8.55315 12.8586C10.7246 14.5982 12.0565 17.1768 12.2192 19.9545C10.6082 21.4898 9.38329 23.384 8.64349 25.4825C7.50532 23.4563 5.9296 21.7092 4.03058 20.3688C4.05499 17.2903 5.67017 14.4433 8.29997 12.8428C8.33282 12.822 8.37048 12.8103 8.40936 12.8088L8.40941 12.81ZM19.7934 12.8118C19.8377 12.8088 19.8817 12.8197 19.9199 12.8423C22.5518 14.4424 24.1682 17.29 24.1927 20.37C22.2927 21.7098 20.7158 23.457 19.5767 25.4838C18.837 23.3846 17.6117 21.4898 16.0008 19.9538C16.1644 17.1764 17.497 14.5987 19.6687 12.8597C19.7039 12.8308 19.7476 12.8139 19.7934 12.8109L19.7934 12.8118ZM14.0935 19.136H14.0932C14.1008 19.1354 14.1083 19.1354 14.1155 19.136C14.1598 19.1369 14.2026 19.1514 14.2388 19.1773C15.8937 20.3784 17.2564 21.9375 18.2255 23.7384C19.1944 25.5392 19.7443 27.5356 19.8346 29.5783C18.0558 30.4615 16.0972 30.9211 14.1113 30.9211C12.1255 30.9211 10.1665 30.4615 8.38803 29.5783C8.47784 27.5358 9.02718 25.5397 9.99569 23.739C10.9639 21.9379 12.3259 20.3787 13.9803 19.1773C14.0134 19.1532 14.0523 19.139 14.093 19.136H14.0935ZM26.8722 19.4343L26.8719 19.434V19.4359V19.4377V19.4395V19.4413V19.4431V19.4449V19.4467V19.45V19.4518V19.4551V19.4569V19.4603V19.4621V19.4639C26.6459 21.5082 25.9336 23.4687 24.7939 25.1809C23.6542 26.893 22.121 28.3072 20.3223 29.305C20.2566 28.2476 20.0722 27.2013 19.7726 26.1853V26.1834C21.314 23.2144 23.7986 20.8413 26.8355 19.438V19.4362V19.4344L26.8722 19.4343ZM1.3449 19.4362V19.4359V19.4377C4.38209 20.8416 6.86663 23.2153 8.40772 26.185C8.10819 27.2011 7.92377 28.2476 7.85807 29.3047C6.05995 28.3069 4.52704 26.8931 3.38803 25.1812C2.24863 23.4693 1.53629 21.5093 1.31026 19.4654V19.4635C1.30996 19.4626 1.30996 19.4614 1.31026 19.4602V19.4584C1.30996 19.4575 1.30996 19.4563 1.31026 19.4551V19.4533V19.4515V19.4497V19.4479V19.4464V19.4446V19.4428V19.4409V19.4391V19.4373V19.4355L1.3449 19.4362ZM10.9654 31.0786C13.0335 31.5779 15.1905 31.5779 17.2582 31.0786C16.5407 31.8476 16.1417 32.8601 16.1417 33.912V38.8281C16.1417 39.2171 15.8266 39.5329 15.4375 39.5338H12.786C12.5989 39.5338 12.4193 39.4594 12.287 39.3271C12.1547 39.1948 12.0803 39.0152 12.0803 38.8281V33.912C12.0806 32.8603 11.6823 31.8478 10.9654 31.0786Z"/>
</mask>
<path d="M14.0929 0.468315C13.929 0.472534 13.7705 0.530391 13.6421 0.632845C12.5545 1.50248 11.6092 2.53642 10.84 3.69719C10.8125 3.64657 10.7845 3.59624 10.7565 3.54622C10.6417 3.34342 10.4392 3.2051 10.2084 3.17226C9.97754 3.13941 9.7446 3.21505 9.57736 3.37777C8.11496 4.8016 6.86378 6.42731 5.86123 8.20553C5.75546 8.05848 5.58521 7.97229 5.4041 7.9735C5.22329 7.975 5.05424 8.0639 4.95088 8.21216C2.73904 11.3675 1.59216 15.146 1.67686 18.9983C1.64462 18.9829 1.61207 18.9678 1.57983 18.9531C1.39692 18.8681 1.18237 18.8886 1.01904 19.0067C0.855414 19.1245 0.768028 19.3213 0.790631 19.5217C1.05943 21.9544 1.98935 24.2672 3.47921 26.2091C4.9693 28.1509 6.96237 29.6473 9.24263 30.5366C9.92215 30.8018 10.5058 31.2656 10.9175 31.8676C11.3288 32.4697 11.5491 33.1821 11.5491 33.9113V38.8274C11.5488 39.1562 11.679 39.4714 11.9113 39.704C12.1433 39.9366 12.4585 40.0671 12.7873 40.0674H15.4387H15.4384C15.7672 40.0671 16.0824 39.9366 16.3147 39.704C16.5467 39.4713 16.6772 39.1561 16.6766 38.8274V33.9113C16.6766 33.1821 16.8966 32.47 17.3076 31.868C17.7189 31.2659 18.3021 30.8018 18.9812 30.5366C21.2615 29.6474 23.2548 28.1509 24.7446 26.2091C26.2347 24.2672 27.1644 21.9545 27.4332 19.5217C27.4558 19.3213 27.3687 19.1245 27.2051 19.0067C27.0415 18.8886 26.8272 18.8681 26.6443 18.9531C26.613 18.9678 26.5816 18.9829 26.5506 18.9983C26.6344 15.1457 25.486 11.3668 23.2733 8.21216C23.1696 8.06541 23.0015 7.97742 22.8216 7.97591C22.6417 7.97471 22.4723 8.05998 22.3662 8.20553C21.3637 6.42732 20.1125 4.80161 18.6501 3.37778C18.4829 3.21506 18.2499 3.13942 18.0191 3.17226C17.7883 3.20511 17.5858 3.34343 17.471 3.54623C17.4423 3.59625 17.4137 3.64658 17.3857 3.6972C16.6158 2.53643 15.6699 1.50256 14.5817 0.632853C14.4431 0.522261 14.2698 0.463802 14.0926 0.468322L14.0929 0.468315ZM14.0929 1.00078C14.1004 1.00048 14.108 1.00048 14.1152 1.00078C14.164 1.00168 14.211 1.01886 14.2487 1.04929C15.3703 1.94608 16.3336 3.024 17.0997 4.23838C16.4503 5.53446 15.9844 6.91485 15.7159 8.33929C15.3868 7.89693 15.0397 7.46843 14.6754 7.0544C14.5325 6.89258 14.3267 6.79947 14.111 6.79947C13.8949 6.79947 13.6891 6.89258 13.5463 7.0544C13.1822 7.46844 12.8351 7.89696 12.5061 8.33929C12.2373 6.91485 11.7717 5.53446 11.1223 4.23838C11.888 3.024 12.8517 1.94608 13.9729 1.04929C14.007 1.02157 14.0489 1.0047 14.0926 1.00078H14.0929ZM10.0821 3.69569V3.69539C10.0896 3.69508 10.0969 3.69508 10.1044 3.69539C10.1818 3.6978 10.2521 3.74059 10.29 3.80808C11.1889 5.40008 11.7913 7.14243 12.0673 8.9495C11.1422 10.2968 10.3847 11.7513 9.8112 13.2812C9.5198 12.9838 9.21032 12.7042 8.88517 12.4438C8.63868 12.2453 8.29394 12.2227 8.02333 12.3866C7.66625 12.6042 7.32362 12.8452 6.99849 13.108C6.83576 11.6688 6.53563 10.2486 6.10201 8.86637C7.11359 6.9773 8.40966 5.25485 9.94465 3.75959C9.98142 3.72253 10.0299 3.69993 10.0818 3.69541L10.0821 3.69569ZM18.1111 3.69569V3.69539C18.1184 3.69508 18.1259 3.69508 18.1334 3.69539C18.1877 3.6984 18.2389 3.7213 18.2772 3.75987C19.8125 5.25513 21.1085 6.97727 22.1198 8.86665C21.6865 10.2486 21.386 11.6691 21.2233 13.1083C20.8976 12.8452 20.5547 12.6041 20.1969 12.3869C19.9266 12.2235 19.5828 12.2461 19.3366 12.4438C19.0109 12.7042 18.7011 12.9838 18.4089 13.2815C17.8348 11.7513 17.0766 10.2968 16.1512 8.94979C16.4284 7.14202 17.0317 5.39998 17.9321 3.80837C17.9686 3.74268 18.0358 3.70019 18.1108 3.69567L18.1111 3.69569ZM14.1018 7.33043V7.33012C14.1687 7.32741 14.2332 7.35544 14.2769 7.40636C15.9053 9.25841 17.1697 11.4009 18.0036 13.7218C16.5906 15.3424 15.7167 17.3623 15.503 19.5015C15.1972 19.2366 14.8802 18.985 14.553 18.7473C14.2896 18.5565 13.9334 18.5565 13.6704 18.7473C13.3422 18.985 13.0246 19.2366 12.7181 19.5015C12.5045 17.3623 11.6306 15.3424 10.2176 13.7218C11.052 11.4009 12.317 9.25841 13.9458 7.40636C13.9855 7.36026 14.0428 7.33254 14.1037 7.33012L14.1018 7.33043ZM5.40393 8.50778V8.50748V8.50929V8.5111V8.5129V8.51471V8.51652V8.51833V8.52014V8.52345V8.52526C5.95598 10.1473 6.31792 11.8279 6.48238 13.5332C4.67014 15.2165 3.59223 17.5443 3.48076 20.0153C3.06249 19.745 2.63126 19.4952 2.18892 19.2662C2.04458 15.4334 3.1583 11.6586 5.3605 8.51863V8.51682V8.51502V8.51321V8.5114V8.50959V8.50778L5.40393 8.50778ZM22.8158 8.50778V8.50748V8.50929V8.5111V8.5129V8.51471V8.51652V8.51833C25.018 11.6586 26.1321 15.4335 25.9874 19.2659C25.5456 19.4955 25.1153 19.7459 24.6974 20.0165C24.5856 17.5455 23.5067 15.2174 21.6939 13.5347C21.8584 11.8286 22.2203 10.1474 22.7723 8.525V8.52319V8.52138V8.51958V8.51777V8.51596V8.51415V8.51234V8.51084V8.50903V8.50722L22.8158 8.50778ZM8.40941 12.81C8.46155 12.8085 8.51247 12.8257 8.55315 12.8586C10.7246 14.5982 12.0565 17.1768 12.2192 19.9545C10.6082 21.4898 9.38329 23.384 8.64349 25.4825C7.50532 23.4563 5.9296 21.7092 4.03058 20.3688C4.05499 17.2903 5.67017 14.4433 8.29997 12.8428C8.33282 12.822 8.37048 12.8103 8.40936 12.8088L8.40941 12.81ZM19.7934 12.8118C19.8377 12.8088 19.8817 12.8197 19.9199 12.8423C22.5518 14.4424 24.1682 17.29 24.1927 20.37C22.2927 21.7098 20.7158 23.457 19.5767 25.4838C18.837 23.3846 17.6117 21.4898 16.0008 19.9538C16.1644 17.1764 17.497 14.5987 19.6687 12.8597C19.7039 12.8308 19.7476 12.8139 19.7934 12.8109L19.7934 12.8118ZM14.0935 19.136H14.0932C14.1008 19.1354 14.1083 19.1354 14.1155 19.136C14.1598 19.1369 14.2026 19.1514 14.2388 19.1773C15.8937 20.3784 17.2564 21.9375 18.2255 23.7384C19.1944 25.5392 19.7443 27.5356 19.8346 29.5783C18.0558 30.4615 16.0972 30.9211 14.1113 30.9211C12.1255 30.9211 10.1665 30.4615 8.38803 29.5783C8.47784 27.5358 9.02718 25.5397 9.99569 23.739C10.9639 21.9379 12.3259 20.3787 13.9803 19.1773C14.0134 19.1532 14.0523 19.139 14.093 19.136H14.0935ZM26.8722 19.4343L26.8719 19.434V19.4359V19.4377V19.4395V19.4413V19.4431V19.4449V19.4467V19.45V19.4518V19.4551V19.4569V19.4603V19.4621V19.4639C26.6459 21.5082 25.9336 23.4687 24.7939 25.1809C23.6542 26.893 22.121 28.3072 20.3223 29.305C20.2566 28.2476 20.0722 27.2013 19.7726 26.1853V26.1834C21.314 23.2144 23.7986 20.8413 26.8355 19.438V19.4362V19.4344L26.8722 19.4343ZM1.3449 19.4362V19.4359V19.4377C4.38209 20.8416 6.86663 23.2153 8.40772 26.185C8.10819 27.2011 7.92377 28.2476 7.85807 29.3047C6.05995 28.3069 4.52704 26.8931 3.38803 25.1812C2.24863 23.4693 1.53629 21.5093 1.31026 19.4654V19.4635C1.30996 19.4626 1.30996 19.4614 1.31026 19.4602V19.4584C1.30996 19.4575 1.30996 19.4563 1.31026 19.4551V19.4533V19.4515V19.4497V19.4479V19.4464V19.4446V19.4428V19.4409V19.4391V19.4373V19.4355L1.3449 19.4362ZM10.9654 31.0786C13.0335 31.5779 15.1905 31.5779 17.2582 31.0786C16.5407 31.8476 16.1417 32.8601 16.1417 33.912V38.8281C16.1417 39.2171 15.8266 39.5329 15.4375 39.5338H12.786C12.5989 39.5338 12.4193 39.4594 12.287 39.3271C12.1547 39.1948 12.0803 39.0152 12.0803 38.8281V33.912C12.0806 32.8603 11.6823 31.8478 10.9654 31.0786Z" fill="#FFFFF0" fill-opacity="0.65" stroke="white" stroke-width="2" mask="url(#path-1-inside-1_178_343)"/>
</svg>
