<svg width="50" height="50" viewBox="0 0 50 50" fill="none" xmlns="http://www.w3.org/2000/svg">
<path d="M41.667 20.8333V14.5833C41.667 13.4783 41.228 12.4184 40.4466 11.637C39.6652 10.8556 38.6054 10.4167 37.5003 10.4167H12.5003C11.3953 10.4167 10.3354 10.8556 9.55405 11.637C8.77265 12.4184 8.33366 13.4783 8.33366 14.5833V20.8333C7.22859 20.8333 6.16878 21.2723 5.38738 22.0537C4.60598 22.8351 4.16699 23.8949 4.16699 25V35.4167H6.93783L8.33366 39.5833H10.417L11.8128 35.4167H38.1878L39.5837 39.5833H41.667L43.0628 35.4167H45.8337V25C45.8337 23.8949 45.3947 22.8351 44.6133 22.0537C43.8319 21.2723 42.7721 20.8333 41.667 20.8333ZM27.0837 14.5833H37.5003V20.8333H27.0837M12.5003 14.5833H22.917V20.8333H12.5003M41.667 31.25H8.33366V25H41.667V31.25Z" fill="black"/>
</svg>
