<svg width="312" height="308" viewBox="0 0 312 308" fill="none" xmlns="http://www.w3.org/2000/svg">
<path d="M55.25 28.5591V1.54102M117.25 28.5591V1.54102M179.25 28.5591V1.54102M1 152.07H241.405M245.745 128.449V241.461C245.745 258.7 238.87 275.232 226.632 287.422C214.395 299.611 197.797 306.459 180.49 306.459H66.255C30.295 306.459 1 277.28 1 241.461V128.449C1 111.21 7.87506 94.6778 20.1127 82.4883C32.3504 70.2989 48.9483 63.451 66.255 63.451H180.49C216.45 63.451 245.745 92.6305 245.745 128.449ZM311 169.979C311 205.798 281.705 234.977 245.745 234.977V104.982C254.314 104.982 262.8 106.663 270.717 109.929C278.634 113.196 285.828 117.983 291.887 124.019C297.947 130.055 302.753 137.22 306.033 145.106C309.312 152.992 311 161.444 311 169.979Z" stroke="#FFFFF0" stroke-width="1.5" stroke-linecap="round" stroke-linejoin="round"/>
</svg>
