<svg width="103" height="102" viewBox="0 0 103 102" fill="none" xmlns="http://www.w3.org/2000/svg">
<path d="M34.7078 9.2793V21.923M68.4245 9.2793V21.923M15.7422 39.1607H87.3901M81.9533 67.3141L67.0337 82.2337C66.4436 82.8238 65.8957 83.9196 65.7693 84.7203L64.9685 90.41C64.6735 92.4752 66.1065 93.9081 68.1716 93.6131L73.8613 92.8123C74.6621 92.6859 75.8 92.138 76.3479 91.548L91.2675 76.6283C93.8384 74.0574 95.0606 71.0651 91.2675 67.272C87.5165 63.521 84.5242 64.7432 81.9533 67.3141Z" stroke="black" stroke-width="1.5" stroke-miterlimit="10" stroke-linecap="round" stroke-linejoin="round"/>
<path d="M79.8037 69.4634C81.0681 74.0152 84.6083 77.5554 89.1601 78.8198M51.566 93.5709H34.7077C19.9566 93.5709 13.6348 85.1417 13.6348 72.4979V36.674C13.6348 24.0302 19.9566 15.6011 34.7077 15.6011H68.4243C83.1754 15.6011 89.4973 24.0302 89.4973 36.674V51.425" stroke="black" stroke-width="1.5" stroke-miterlimit="10" stroke-linecap="round" stroke-linejoin="round"/>
<path d="M51.545 58.5898H51.5871M35.9468 58.5898H35.9889M35.9468 71.2336H35.9889" stroke="black" stroke-width="2" stroke-linecap="round" stroke-linejoin="round"/>
</svg>
