<svg width="40" height="40" viewBox="0 0 40 40" fill="none" xmlns="http://www.w3.org/2000/svg">
<g clip-path="url(#clip0_282_62019)">
<path d="M20 0C17.4692 0 15.3846 2.08462 15.3846 4.61538C15.3846 6.54923 16.6462 7.83385 17.5 8.50923C17.9262 8.84769 18.2754 9.13538 18.4138 9.27846C18.4554 9.32154 18.4523 9.32462 18.4615 9.32769V9.95231C17.1492 10.7354 4.78308 18.0969 3.79846 18.7015C2.98154 19.2046 2.15231 19.66 1.39385 20.3846C0.635385 21.1077 0 22.2292 0 23.5092C0 24.7677 0.604615 25.9169 1.49077 26.6338C2.37538 27.3538 3.47231 27.6923 4.61538 27.6923H6.15385V24.6154H4.61538C4.06 24.6154 3.64154 24.4631 3.41385 24.2785C3.18462 24.0938 3.07692 23.92 3.07692 23.5092C3.07692 23.06 3.14923 22.94 3.50923 22.5954C3.87077 22.2523 4.57538 21.8262 5.43231 21.2985C6.10154 20.8862 18.6631 13.3523 20 12.5477C21.3385 13.3523 33.8985 20.8862 34.5677 21.2985C35.4246 21.8246 36.1292 22.2523 36.4908 22.5969C36.8508 22.94 36.9231 23.06 36.9231 23.5092C36.9231 23.92 36.8154 24.0938 36.5862 24.2785C36.3585 24.4631 35.94 24.6154 35.3846 24.6154H33.8462V27.6923H35.3846C36.5277 27.6923 37.6246 27.3523 38.5092 26.6338C38.9723 26.2551 39.346 25.7788 39.6037 25.239C39.8614 24.6991 39.9967 24.109 40 23.5108C40 22.2292 39.3646 21.1092 38.6062 20.3846C37.8462 19.6615 37.0185 19.2046 36.2015 18.7015C35.2169 18.0969 22.8508 10.7354 21.5385 9.95231V9.23077C21.5385 8.34 21.0646 7.57077 20.6246 7.11538C20.1862 6.66 19.7662 6.37692 19.4231 6.10615C18.7385 5.56308 18.4615 5.38154 18.4615 4.61538C18.4615 3.74615 19.1308 3.07692 20 3.07692C20.8692 3.07692 21.5385 3.74615 21.5385 4.61538C21.5385 5.02341 21.7006 5.41472 21.9891 5.70324C22.2776 5.99176 22.6689 6.15385 23.0769 6.15385C23.4849 6.15385 23.8763 5.99176 24.1648 5.70324C24.4533 5.41472 24.6154 5.02341 24.6154 4.61538C24.6154 2.08462 22.5308 0 20 0ZM9.23077 21.5385C8.82274 21.5385 8.43143 21.7006 8.14291 21.9891C7.8544 22.2776 7.69231 22.6689 7.69231 23.0769V38.4615C7.69231 38.8696 7.8544 39.2609 8.14291 39.5494C8.43143 39.8379 8.82274 40 9.23077 40H30.7692C31.1773 40 31.5686 39.8379 31.8571 39.5494C32.1456 39.2609 32.3077 38.8696 32.3077 38.4615V23.0769C32.3077 22.6689 32.1456 22.2776 31.8571 21.9891C31.5686 21.7006 31.1773 21.5385 30.7692 21.5385H9.23077Z" fill="black"/>
</g>
<defs>
<clipPath id="clip0_282_62019">
<rect width="40" height="40" fill="white"/>
</clipPath>
</defs>
</svg>
