<svg width="50" height="50" viewBox="0 0 50 50" fill="none" xmlns="http://www.w3.org/2000/svg">
<path d="M20.8337 26.5208C25.7532 25.5694 30.6207 24.3664 35.417 22.9167V8.33332C35.417 8.33332 21.8753 4.16666 15.6253 4.16666C12.843 4.17449 10.1586 5.1944 8.07308 7.03607C5.98753 8.87774 4.64333 11.4153 4.29132 14.1753C3.93931 16.9352 4.60355 19.729 6.16007 22.0352C7.7166 24.3413 10.0591 26.0024 12.7503 26.7083L14.5837 39.5833H16.667C16.7503 40.5763 17.0698 41.535 17.599 42.3794C18.1281 43.2238 18.8514 43.9295 19.7087 44.4375C20.6752 45.0121 21.4779 45.8255 22.0397 46.7995C22.6015 47.7736 22.9036 48.8756 22.917 50H25.0003C24.9909 48.5648 24.6217 47.1549 23.9265 45.8992C23.2314 44.6436 22.2325 43.5823 21.0212 42.8125C19.5628 41.6667 18.7503 40.8958 18.7503 39.5833H20.8337M8.33366 15.625C8.33366 13.6911 9.10189 11.8365 10.4693 10.469C11.8368 9.10155 13.6915 8.33332 15.6253 8.33332C20.9275 8.8336 26.1636 9.88084 31.2503 11.4583V19.7917C26.1636 21.3691 20.9275 22.4164 15.6253 22.9167C13.6915 22.9167 11.8368 22.1484 10.4693 20.781C9.10189 19.4135 8.33366 17.5589 8.33366 15.625ZM45.8337 18.75C44.2171 18.7905 42.6194 18.3947 41.2087 17.6042C40.0819 16.9575 38.799 16.6332 37.5003 16.6667V14.5833C39.1169 14.5428 40.7146 14.9386 42.1253 15.7292C43.2521 16.3758 44.535 16.7001 45.8337 16.6667M45.8337 12.5C44.535 12.5335 43.2521 12.2091 42.1253 11.5625C40.7146 10.772 39.1169 10.3762 37.5003 10.4167V12.5C38.799 12.4665 40.0819 12.7908 41.2087 13.4375C42.6194 14.228 44.2171 14.6238 45.8337 14.5833M45.8337 20.8333C44.535 20.8668 43.2521 20.5425 42.1253 19.8958C40.7146 19.1053 39.1169 18.7095 37.5003 18.75V20.8333C38.799 20.7998 40.0819 21.1242 41.2087 21.7708C42.6194 22.5613 44.2171 22.9572 45.8337 22.9167M18.7503 15.625C18.7503 16.2431 18.5671 16.8472 18.2237 17.3611C17.8803 17.875 17.3922 18.2756 16.8212 18.5121C16.2502 18.7486 15.6219 18.8105 15.0157 18.6899C14.4095 18.5694 13.8527 18.2717 13.4156 17.8347C12.9786 17.3977 12.681 16.8408 12.5604 16.2346C12.4398 15.6285 12.5017 15.0001 12.7382 14.4291C12.9747 13.8581 13.3753 13.37 13.8892 13.0266C14.4031 12.6833 15.0073 12.5 15.6253 12.5C16.4541 12.5 17.249 12.8292 17.835 13.4153C18.4211 14.0013 18.7503 14.7962 18.7503 15.625Z" fill="black"/>
</svg>
