<svg width="30" height="39" viewBox="0 0 30 39" fill="none" xmlns="http://www.w3.org/2000/svg">
<path d="M27 18.0143L19.3125 18.3857L23.625 13.5571C24 13 24.1875 12.0714 24 11.1429C23.8125 10.5857 23.625 10.0286 23.0625 9.65714L12.9375 3.71429C12.1875 3.15714 11.0625 3.34286 10.3125 3.9L5.25 8.54286C4.3125 9.47143 4.125 10.7714 5.0625 11.7C5.8125 12.6286 7.3125 12.6286 8.25 11.8857L12 8.54286L15.5625 10.5857L7.6875 18.5714C7.5 18.7571 7.5 18.9429 7.3125 18.9429C6.375 19.3143 5.4375 19.6857 4.6875 20.2429L7.5 23.0286C8.4375 22.6571 9.375 22.2857 10.3125 22.2857C13.875 22.2857 16.875 25.2571 16.875 28.7857C16.875 29.9 16.6875 30.8286 16.125 31.5714L18.9375 34.3571C20.0625 32.6857 20.625 30.8286 20.625 28.7857C20.625 26.5571 19.875 24.3286 18.5625 22.6571L24.75 22.1L24.375 31.0143C24.1875 32.3143 25.125 33.2429 26.4375 33.4286H26.625C27.75 33.4286 28.6875 32.5 28.875 31.3857L29.25 20.4286C29.25 19.8714 29.0625 19.1286 28.6875 18.7571C28.125 18.2 27.5625 18.0143 27 18.0143ZM26.25 7.42857C27.2446 7.42857 28.1984 7.03725 28.9016 6.34068C29.6049 5.64412 30 4.69938 30 3.71429C30 2.7292 29.6049 1.78445 28.9016 1.08789C28.1984 0.391325 27.2446 0 26.25 0C25.2554 0 24.3016 0.391325 23.5984 1.08789C22.8951 1.78445 22.5 2.7292 22.5 3.71429C22.5 4.69938 22.8951 5.64412 23.5984 6.34068C24.3016 7.03725 25.2554 7.42857 26.25 7.42857ZM15.9375 37.3286C14.25 38.4429 12.375 39 10.3125 39C4.6875 39 0 34.3571 0 28.7857C0 26.7429 0.5625 24.8857 1.6875 23.2143L4.5 26C4.125 26.9286 3.75 27.8571 3.75 28.7857C3.75 32.3143 6.75 35.2857 10.3125 35.2857C11.4375 35.2857 12.375 35.1 13.125 34.5429L15.9375 37.3286Z" fill="black"/>
</svg>
