<svg width="22" height="30" viewBox="0 0 22 30" fill="none" xmlns="http://www.w3.org/2000/svg">
<path d="M7.9948 13.5052C8.79183 14.3022 9.87283 14.75 11 14.75C11.5581 14.75 12.1108 14.6401 12.6264 14.4265C13.142 14.2129 13.6106 13.8999 14.0052 13.5052C14.3999 13.1106 14.7129 12.642 14.9265 12.1264C15.1401 11.6108 15.25 11.0581 15.25 10.5C15.25 9.37283 14.8022 8.29183 14.0052 7.4948C13.2082 6.69777 12.1272 6.25 11 6.25C9.87283 6.25 8.79183 6.69777 7.9948 7.4948C7.19777 8.29183 6.75 9.37283 6.75 10.5C6.75 11.6272 7.19777 12.7082 7.9948 13.5052ZM11 29.2426C10.9769 29.2158 10.9527 29.1879 10.9276 29.1588C10.6433 28.8288 10.2364 28.3477 9.7476 27.7455C8.76967 26.5405 7.46658 24.8534 6.16448 22.9235C4.86142 20.9922 3.56553 18.8268 2.59693 16.6647C1.62539 14.4961 1 12.3676 1 10.5C1 7.84784 2.05357 5.3043 3.92893 3.42893C5.8043 1.55357 8.34784 0.5 11 0.5C13.6522 0.5 16.1957 1.55357 18.0711 3.42893C19.9464 5.3043 21 7.84784 21 10.5C21 12.3676 20.3746 14.4961 19.4031 16.6647C18.4345 18.8268 17.1386 20.9922 15.8355 22.9235C14.5334 24.8534 13.2303 26.5405 12.2524 27.7455C11.7637 28.3477 11.3567 28.8288 11.0724 29.1588C11.0473 29.1879 11.0231 29.2158 11 29.2426Z" stroke="#FFFFF0"/>
</svg>
