<svg width="236" height="256" viewBox="0 0 236 256" fill="none" xmlns="http://www.w3.org/2000/svg">
<path d="M79.6378 253.163L109.734 227.846C114.254 223.971 121.746 223.971 126.267 227.846L156.363 253.163C163.338 256.65 171.863 253.163 174.446 245.671L180.129 228.492C181.55 224.358 180.129 218.288 177.029 215.188L147.709 185.738C145.513 183.671 143.834 179.538 143.834 176.567V139.754C143.834 134.329 147.838 131.746 152.875 133.813L216.296 161.196C226.242 165.458 234.379 160.163 234.379 149.313V132.65C234.379 123.996 227.921 114.05 219.913 110.692L147.709 79.5625C146.602 78.9944 145.663 78.1476 144.983 77.1056C144.304 76.0637 143.907 74.8626 143.834 73.6209V34.8709C143.834 22.7292 134.921 8.39169 124.071 2.83752C120.196 0.900024 115.675 0.900024 111.8 2.83752C100.95 8.39169 92.0378 22.8584 92.0378 35V73.75C92.0378 76.075 90.2294 78.7875 88.1628 79.6917L16.0878 110.821C8.07943 114.05 1.62109 123.996 1.62109 132.65V149.313C1.62109 160.163 9.75859 165.458 19.7044 161.196L83.1253 133.813C88.0336 131.617 92.1669 134.329 92.1669 139.754V176.567C92.1669 179.538 90.4878 183.671 88.4211 185.738L59.1003 215.188C56.0003 218.288 54.5794 224.229 56.0003 228.492L61.6836 245.671C64.0086 253.163 72.5336 256.779 79.6378 253.163Z" stroke="white" stroke-width="1.5" stroke-linecap="round" stroke-linejoin="round"/>
</svg>
