<svg width="50" height="50" viewBox="0 0 50 50" fill="none" xmlns="http://www.w3.org/2000/svg">
<path d="M25.0003 10.4167C26.1054 10.4167 27.1652 10.8556 27.9466 11.637C28.728 12.4184 29.167 13.4783 29.167 14.5833C29.167 15.0833 29.0837 15.5625 28.917 16.0208C37.3962 17.7083 43.7503 24.8125 43.7503 33.3333H6.25033C6.25033 24.8125 12.6045 17.7083 21.0837 16.0208C20.917 15.5625 20.8337 15.0833 20.8337 14.5833C20.8337 13.4783 21.2726 12.4184 22.054 11.637C22.8355 10.8556 23.8953 10.4167 25.0003 10.4167ZM45.8337 39.5833H4.16699V35.4167H45.8337V39.5833ZM25.0003 19.7917C18.5212 19.7917 13.0212 23.7292 11.1253 29.1667H38.8753C36.9795 23.7292 31.4795 19.7917 25.0003 19.7917Z" fill="black"/>
</svg>
