<svg width="50" height="50" viewBox="0 0 50 50" fill="none" xmlns="http://www.w3.org/2000/svg">
<path d="M41.6667 41.6667C42.2192 41.6667 42.7491 41.8862 43.1398 42.2769C43.5305 42.6676 43.75 43.1975 43.75 43.75C43.75 44.3025 43.5305 44.8324 43.1398 45.2231C42.7491 45.6138 42.2192 45.8333 41.6667 45.8333C41.1141 45.8333 40.5842 45.6138 40.1935 45.2231C39.8028 44.8324 39.5833 44.3025 39.5833 43.75C39.5833 43.1975 39.8028 42.6676 40.1935 42.2769C40.5842 41.8862 41.1141 41.6667 41.6667 41.6667ZM33.3333 41.6667C33.8859 41.6667 34.4158 41.8862 34.8065 42.2769C35.1972 42.6676 35.4167 43.1975 35.4167 43.75C35.4167 44.3025 35.1972 44.8324 34.8065 45.2231C34.4158 45.6138 33.8859 45.8333 33.3333 45.8333C32.7808 45.8333 32.2509 45.6138 31.8602 45.2231C31.4695 44.8324 31.25 44.3025 31.25 43.75C31.25 43.1975 31.4695 42.6676 31.8602 42.2769C32.2509 41.8862 32.7808 41.6667 33.3333 41.6667ZM25 41.6667C25.5525 41.6667 26.0824 41.8862 26.4731 42.2769C26.8638 42.6676 27.0833 43.1975 27.0833 43.75C27.0833 44.3025 26.8638 44.8324 26.4731 45.2231C26.0824 45.6138 25.5525 45.8333 25 45.8333C24.4475 45.8333 23.9176 45.6138 23.5269 45.2231C23.1362 44.8324 22.9167 44.3025 22.9167 43.75C22.9167 43.1975 23.1362 42.6676 23.5269 42.2769C23.9176 41.8862 24.4475 41.6667 25 41.6667ZM16.6667 41.6667C17.2192 41.6667 17.7491 41.8862 18.1398 42.2769C18.5305 42.6676 18.75 43.1975 18.75 43.75C18.75 44.3025 18.5305 44.8324 18.1398 45.2231C17.7491 45.6138 17.2192 45.8333 16.6667 45.8333C16.1141 45.8333 15.5842 45.6138 15.1935 45.2231C14.8028 44.8324 14.5833 44.3025 14.5833 43.75C14.5833 43.1975 14.8028 42.6676 15.1935 42.2769C15.5842 41.8862 16.1141 41.6667 16.6667 41.6667ZM8.33333 41.6667C8.88587 41.6667 9.41577 41.8862 9.80647 42.2769C10.1972 42.6676 10.4167 43.1975 10.4167 43.75C10.4167 44.3025 10.1972 44.8324 9.80647 45.2231C9.41577 45.6138 8.88587 45.8333 8.33333 45.8333C7.7808 45.8333 7.25089 45.6138 6.86019 45.2231C6.46949 44.8324 6.25 44.3025 6.25 43.75C6.25 43.1975 6.46949 42.6676 6.86019 42.2769C7.25089 41.8862 7.7808 41.6667 8.33333 41.6667ZM12.5 35.4167C13.0525 35.4167 13.5824 35.6362 13.9731 36.0269C14.3638 36.4176 14.5833 36.9475 14.5833 37.5C14.5833 38.0525 14.3638 38.5824 13.9731 38.9731C13.5824 39.3638 13.0525 39.5833 12.5 39.5833C11.9475 39.5833 11.4176 39.3638 11.0269 38.9731C10.6362 38.5824 10.4167 38.0525 10.4167 37.5C10.4167 36.9475 10.6362 36.4176 11.0269 36.0269C11.4176 35.6362 11.9475 35.4167 12.5 35.4167ZM20.8333 35.4167C21.3859 35.4167 21.9158 35.6362 22.3065 36.0269C22.6972 36.4176 22.9167 36.9475 22.9167 37.5C22.9167 38.0525 22.6972 38.5824 22.3065 38.9731C21.9158 39.3638 21.3859 39.5833 20.8333 39.5833C20.2808 39.5833 19.7509 39.3638 19.3602 38.9731C18.9695 38.5824 18.75 38.0525 18.75 37.5C18.75 36.9475 18.9695 36.4176 19.3602 36.0269C19.7509 35.6362 20.2808 35.4167 20.8333 35.4167ZM29.1667 35.4167C29.7192 35.4167 30.2491 35.6362 30.6398 36.0269C31.0305 36.4176 31.25 36.9475 31.25 37.5C31.25 38.0525 31.0305 38.5824 30.6398 38.9731C30.2491 39.3638 29.7192 39.5833 29.1667 39.5833C28.6141 39.5833 28.0842 39.3638 27.6935 38.9731C27.3028 38.5824 27.0833 38.0525 27.0833 37.5C27.0833 36.9475 27.3028 36.4176 27.6935 36.0269C28.0842 35.6362 28.6141 35.4167 29.1667 35.4167ZM37.5 35.4167C38.0525 35.4167 38.5824 35.6362 38.9731 36.0269C39.3638 36.4176 39.5833 36.9475 39.5833 37.5C39.5833 38.0525 39.3638 38.5824 38.9731 38.9731C38.5824 39.3638 38.0525 39.5833 37.5 39.5833C36.9475 39.5833 36.4176 39.3638 36.0269 38.9731C35.6362 38.5824 35.4167 38.0525 35.4167 37.5C35.4167 36.9475 35.6362 36.4176 36.0269 36.0269C36.4176 35.6362 36.9475 35.4167 37.5 35.4167ZM16.6667 29.1667C17.2192 29.1667 17.7491 29.3862 18.1398 29.7769C18.5305 30.1676 18.75 30.6975 18.75 31.25C18.75 31.8025 18.5305 32.3324 18.1398 32.7231C17.7491 33.1138 17.2192 33.3333 16.6667 33.3333C16.1141 33.3333 15.5842 33.1138 15.1935 32.7231C14.8028 32.3324 14.5833 31.8025 14.5833 31.25C14.5833 30.6975 14.8028 30.1676 15.1935 29.7769C15.5842 29.3862 16.1141 29.1667 16.6667 29.1667ZM25 29.1667C25.5525 29.1667 26.0824 29.3862 26.4731 29.7769C26.8638 30.1676 27.0833 30.6975 27.0833 31.25C27.0833 31.8025 26.8638 32.3324 26.4731 32.7231C26.0824 33.1138 25.5525 33.3333 25 33.3333C24.4475 33.3333 23.9176 33.1138 23.5269 32.7231C23.1362 32.3324 22.9167 31.8025 22.9167 31.25C22.9167 30.6975 23.1362 30.1676 23.5269 29.7769C23.9176 29.3862 24.4475 29.1667 25 29.1667ZM33.3333 29.1667C33.8859 29.1667 34.4158 29.3862 34.8065 29.7769C35.1972 30.1676 35.4167 30.6975 35.4167 31.25C35.4167 31.8025 35.1972 32.3324 34.8065 32.7231C34.4158 33.1138 33.8859 33.3333 33.3333 33.3333C32.7808 33.3333 32.2509 33.1138 31.8602 32.7231C31.4695 32.3324 31.25 31.8025 31.25 31.25C31.25 30.6975 31.4695 30.1676 31.8602 29.7769C32.2509 29.3862 32.7808 29.1667 33.3333 29.1667ZM39.5833 25H10.4167V20.8333H39.5833V25ZM37.3333 18.75H12.6667C13.5417 13.5417 17.7083 9.37499 22.9167 8.49999V4.16666H27.0833V8.49999C32.2917 9.37499 36.4583 13.5417 37.3333 18.75Z" fill="black"/>
</svg>
