<svg width="50" height="50" viewBox="0 0 50 50" fill="none" xmlns="http://www.w3.org/2000/svg">
<path d="M4.16699 12.5L18.7503 27.0833H4.16699V33.3333H25.0003L39.5837 47.9167L42.1878 45.3125L6.77116 9.89582L4.16699 12.5ZM42.7087 27.0833H45.8337V33.3333H42.7087V27.0833ZM37.5003 27.0833H40.6253V33.3333H37.5003V27.0833ZM39.2712 10.1667C40.5628 8.89582 41.3545 7.14582 41.3545 5.20832H38.2295C38.2295 7.29166 36.4587 9.06249 34.3753 9.06249V12.1875C39.042 12.1875 42.7087 16 42.7087 20.6667V25H45.8337V20.6667C45.8337 16.0208 43.167 12.0208 39.2712 10.1667ZM30.2087 18.125H33.3962C35.5837 18.125 37.5003 19.6667 37.5003 22.3958V25H40.6253V21.6875C40.6253 17.9375 37.292 15.1042 33.3962 15.1042H30.2087C28.1253 15.1042 26.3545 13.0625 26.3545 10.9375C26.3545 8.81249 28.1253 7.29166 30.2087 7.29166V4.16666C28.3577 4.16666 26.5825 4.90196 25.2736 6.21081C23.9648 7.51965 23.2295 9.29483 23.2295 11.1458C23.2295 12.9968 23.9648 14.772 25.2736 16.0808C26.5825 17.3897 28.3577 18.125 30.2087 18.125ZM35.417 33.1875V27.0833H29.3128L35.417 33.1875Z" fill="black"/>
</svg>
