<svg width="50" height="35" viewBox="0 0 50 35" fill="none" xmlns="http://www.w3.org/2000/svg">
<path d="M45.4545 27.2222H4.54545V3.88889H45.4545M45.4545 0H4.54545C3.33993 0 2.18377 0.409721 1.33133 1.13903C0.478895 1.86834 0 2.85749 0 3.88889V27.2222C0 28.2536 0.478895 29.2428 1.33133 29.9721C2.18377 30.7014 3.33993 31.1111 4.54545 31.1111H15.9091V35H34.0909V31.1111H45.4545C46.6601 31.1111 47.8162 30.7014 48.6687 29.9721C49.5211 29.2428 50 28.2536 50 27.2222V3.88889C50 2.85749 49.5211 1.86834 48.6687 1.13903C47.8162 0.409721 46.6601 0 45.4545 0Z" fill="black"/>
</svg>
